<svg width="98" height="18" viewBox="0 0 98 18" fill="none" xmlns="http://www.w3.org/2000/svg">
<g id="Behance " clip-path="url(#clip0_1_24465)">
<path id="Vector" d="M9.32869 0C10.1555 0 10.9187 0.064238 11.6184 0.254408C12.318 0.381612 12.8904 0.63602 13.3992 0.95403C13.908 1.27204 14.2896 1.71725 14.544 2.29031C14.7985 2.86209 14.9257 3.56235 14.9257 4.32557C14.9257 5.21536 14.7349 5.97922 14.2896 6.55164C13.908 7.12342 13.272 7.63224 12.5088 8.01385C13.59 8.33186 14.4168 8.90364 14.9257 9.6675C15.4345 10.4307 15.7525 11.3848 15.7525 12.466C15.7525 13.3558 15.5617 14.1196 15.2437 14.7557C14.9257 15.3917 14.4168 15.9641 13.8444 16.3457C13.272 16.728 12.5724 17.046 11.8092 17.2361C11.0459 17.4263 10.2827 17.5541 9.51949 17.5541H0.996826V0H9.32869ZM8.81987 7.12342C9.51949 7.12342 10.0919 6.93262 10.5371 6.61461C10.9823 6.2966 11.1731 5.72418 11.1731 5.02456C11.1731 4.64295 11.1095 4.26133 10.9823 4.00693C10.8551 3.75252 10.6643 3.56171 10.4099 3.37091C10.1555 3.2437 9.9011 3.1165 9.58309 3.0529C9.26508 2.98929 8.94707 2.98929 8.56546 2.98929H4.87655V7.12342H8.81987ZM9.01068 14.6285C9.39229 14.6285 9.7739 14.5649 10.0919 14.5019C10.4099 14.4377 10.7279 14.3104 10.9823 14.1196C11.2367 13.9288 11.4276 13.738 11.6184 13.42C11.7456 13.102 11.8728 12.7198 11.8728 12.2752C11.8728 11.3848 11.6184 10.7487 11.1095 10.3029C10.6007 9.92127 9.9011 9.7311 9.07428 9.7311H4.87655V14.6285H9.01068ZM21.2859 14.5649C21.7947 15.0737 22.5579 15.3281 23.5755 15.3281C24.2752 15.3281 24.9112 15.1373 25.42 14.8193C25.9288 14.437 26.2468 14.056 26.374 13.6738H29.4905C28.9817 15.2002 28.2185 16.2821 27.2008 16.9811C26.1832 17.6171 24.9748 17.9994 23.5119 17.9994C22.4943 17.9994 21.6039 17.8079 20.777 17.4899C19.9502 17.1719 19.3142 16.7273 18.7418 16.0913C18.1694 15.5189 17.7241 14.8193 17.4697 13.9918C17.1517 13.165 17.0245 12.2752 17.0245 11.2569C17.0245 10.3029 17.1517 9.41309 17.4697 8.58563C17.7878 7.75881 18.233 7.05982 18.8054 6.4238C19.3778 5.85138 20.0774 5.34257 20.8406 5.02456C21.6675 4.70655 22.4943 4.51574 23.5119 4.51574C24.5932 4.51574 25.5472 4.70655 26.374 5.15176C27.2008 5.59698 27.8369 6.10579 28.3457 6.86901C28.8545 7.56864 29.2361 8.39483 29.4905 9.28589C29.6177 10.1763 29.6813 11.0667 29.6177 12.0844H20.3954C20.3954 13.102 20.777 14.056 21.2859 14.5649ZM25.2928 7.88665C24.8476 7.44143 24.1479 7.18702 23.3211 7.18702C22.7487 7.18702 22.3035 7.31359 21.9219 7.50503C21.5403 7.69584 21.2859 7.94961 21.0315 8.20466C20.777 8.4597 20.6498 8.77707 20.5862 9.09508C20.5226 9.41309 20.459 9.66687 20.459 9.92191H26.1832C26.056 8.96788 25.738 8.33186 25.2928 7.88665ZM34.5787 0V6.61461H34.6423C35.0875 5.85138 35.6599 5.34257 36.3595 5.02456C37.0592 4.70655 37.6952 4.51574 38.3948 4.51574C39.3488 4.51574 40.112 4.64294 40.6845 4.89735C41.2569 5.15176 41.7657 5.53337 42.0837 5.97859C42.4017 6.4238 42.6561 6.99622 42.7833 7.63224C42.9105 8.26826 42.9741 8.96852 42.9741 9.79471V17.6178H39.476V10.4307C39.476 9.34949 39.2852 8.58627 38.9672 8.07745C38.6492 7.56864 38.0768 7.31423 37.25 7.31423C36.2959 7.31423 35.5963 7.63224 35.2147 8.14169C34.7695 8.71347 34.5787 9.6675 34.5787 10.9395V17.6178H31.0806V0H34.5787ZM45.5182 6.74181C45.8998 6.16939 46.345 5.78778 46.9175 5.40553C47.4899 5.08752 48.1259 4.83375 48.8255 4.70591C49.5251 4.57871 50.2241 4.51511 50.9244 4.51511C51.5604 4.51511 52.1964 4.57871 52.8967 4.64231C53.5327 4.70591 54.1687 4.89608 54.6769 5.15112C55.2493 5.4049 55.6309 5.78714 56.0132 6.23236C56.3306 6.67821 56.5214 7.31423 56.5214 8.07745V14.7557C56.5214 15.3281 56.585 15.9005 56.6486 16.41C56.7128 16.9188 56.9023 17.364 57.0938 17.6178H53.5321C53.4042 17.4905 53.3406 17.2361 53.2777 17.046C53.2141 16.8545 53.2141 16.6008 53.2141 16.41C52.6416 16.9817 52.0056 17.364 51.2424 17.6178C50.4792 17.8722 49.716 17.9358 48.9527 17.9358C48.3167 17.9358 47.8079 17.8722 47.2355 17.682C46.7267 17.5548 46.2814 17.2997 45.8362 16.9817C45.4546 16.6637 45.1366 16.2821 44.8822 15.7739C44.6914 15.2645 44.5642 14.7557 44.5642 14.056C44.5642 13.3558 44.6914 12.7198 44.9458 12.2752C45.2002 11.83 45.5182 11.4484 45.8998 11.1303C46.2814 10.8766 46.7903 10.6215 47.2991 10.4943C47.8079 10.3678 48.3167 10.2406 48.8891 10.1763L50.4156 9.98551C50.9244 9.92191 51.3696 9.85831 51.7512 9.79471C52.1328 9.6675 52.4508 9.5403 52.7052 9.34949C52.9597 9.15869 53.0233 8.90428 53.0233 8.52267C53.0233 8.14105 52.9597 7.82304 52.8324 7.63224C52.7052 7.44143 52.5144 7.25063 52.3236 7.12342C52.1322 6.99622 51.8784 6.93262 51.624 6.86965C51.3696 6.80541 51.0516 6.80541 50.7336 6.80541C50.034 6.80541 49.5251 6.93262 49.1435 7.25063C48.7619 7.56864 48.5075 8.07745 48.4439 8.71347H44.9458C44.9458 7.95025 45.2002 7.25063 45.5182 6.74181ZM52.4502 11.7028C52.26 11.7664 52.0056 11.83 51.7506 11.8936C51.4962 11.9578 51.2418 11.9578 50.9238 12.0208C50.67 12.0844 50.352 12.0844 50.0969 12.148L49.3337 12.3388C49.0793 12.4024 48.8249 12.5296 48.6977 12.6568C48.5069 12.784 48.3797 12.9748 48.2525 13.1656C48.0623 13.42 48.0623 13.6744 48.0623 13.9924C48.0623 14.3104 48.1259 14.5649 48.2531 14.7557C48.3803 14.9465 48.5075 15.1379 48.6983 15.2645C48.8891 15.3917 49.1435 15.4559 49.3979 15.5189C49.6523 15.5819 49.9061 15.5825 50.2241 15.5825C50.9244 15.5825 51.4326 15.4559 51.8142 15.2645C52.1964 15.0107 52.4502 14.7557 52.6416 14.4377C52.8324 14.1196 52.9596 13.8016 52.9596 13.4836C53.0233 13.1656 53.0233 12.9118 53.0233 12.7204V11.3848C52.8324 11.512 52.6416 11.6398 52.4502 11.7028ZM61.801 4.83375V6.61461H61.8646C62.3091 5.85138 62.8822 5.34257 63.5812 5.02456C64.2814 4.70655 65.0447 4.51574 65.7437 4.51574C66.6977 4.51574 67.4609 4.64294 68.0333 4.89735C68.6693 5.15176 69.1152 5.53337 69.4332 5.97859C69.7512 6.4238 70.005 6.99622 70.1958 7.63224C70.323 8.26826 70.3872 8.96852 70.3872 9.79471V17.6178H66.8891V10.4307C66.8891 9.34949 66.6977 8.58627 66.3797 8.07745C66.0617 7.56864 65.4892 7.25063 64.5988 7.25063C63.6448 7.25063 62.9445 7.63224 62.4999 8.20466C62.0547 8.77707 61.8639 9.7311 61.8639 11.0031V17.6814H58.3658V4.83375H61.801ZM78.209 7.12342C77.6372 7.12342 77.1914 7.25063 76.8104 7.50567C76.4288 7.75944 76.1108 8.07745 75.8564 8.5233C75.602 8.90491 75.4748 9.35013 75.3469 9.85894C75.2203 10.3684 75.2203 10.813 75.2203 11.3224C75.2203 11.767 75.284 12.2765 75.3469 12.721C75.4748 13.2305 75.6013 13.6115 75.8564 13.9931C76.1108 14.3753 76.3652 14.6933 76.7468 14.9471C77.1284 15.2015 77.573 15.3294 78.1454 15.3294C78.9729 15.3294 79.6089 15.0749 80.1171 14.6291C80.5629 14.1845 80.8809 13.5485 80.9445 12.721H84.3154C84.0617 14.4383 83.4256 15.7103 82.3431 16.6014C81.2625 17.4912 79.8633 17.937 78.1454 17.937C77.1914 17.937 76.3009 17.7462 75.5377 17.4282C74.7103 17.1102 74.0742 16.665 73.5025 16.0926C72.9307 15.5202 72.4842 14.8205 72.1662 14.0573C71.8482 13.2305 71.7216 12.403 71.7216 11.449C71.7216 10.4314 71.8482 9.54093 72.1662 8.71411C72.4842 7.88728 72.8664 7.12406 73.4382 6.48804C74.0106 5.85202 74.7103 5.40681 75.4741 5.02519C76.3003 4.70718 77.1907 4.51638 78.2084 4.51638C78.9722 4.51638 79.6718 4.64358 80.3708 4.83439C81.0698 5.02519 81.7065 5.3432 82.2153 5.72418C82.7877 6.10643 83.2329 6.61461 83.5509 7.25063C83.8689 7.82304 84.0604 8.58627 84.1234 9.41309H80.6888C80.5635 7.88665 79.7361 7.12342 78.209 7.12342ZM19.6958 1.20844H26.8192V2.92569H19.6958V1.20844ZM89.5944 14.5649C90.1039 15.0737 90.93 15.3281 91.8841 15.3281C92.5843 15.3281 93.2203 15.1373 93.7285 14.8193C94.238 14.437 94.556 14.056 94.6826 13.6738H97.7361C97.2266 15.2002 96.4641 16.2821 95.4458 16.9811C94.4275 17.6171 93.2197 17.9994 91.7569 17.9994C90.7392 17.9994 89.8488 17.8079 89.0213 17.4899C88.2385 17.198 87.5397 16.7177 86.9867 16.0913C86.4143 15.5189 85.9691 14.8193 85.7147 13.9918C85.3967 13.165 85.2695 12.2752 85.2695 11.2569C85.2695 10.3029 85.3967 9.41309 85.7147 8.58563C86.021 7.78796 86.474 7.05471 87.0503 6.4238C87.6227 5.85138 88.3224 5.34257 89.0856 5.02456C89.9124 4.70655 90.8028 4.51574 91.7569 4.51574C92.8375 4.51574 93.7915 4.70655 94.5554 5.15176C95.3815 5.59698 96.0176 6.10579 96.527 6.86901C97.0358 7.56864 97.4174 8.39483 97.6719 9.28589C97.9256 10.1757 97.9899 11.1297 97.9256 12.148H88.7033C88.7033 13.102 89.0856 14.056 89.5944 14.5649ZM93.6649 7.88665C93.2197 7.44143 92.5195 7.18702 91.6933 7.18702C91.1208 7.18702 90.675 7.31359 90.2934 7.50503C89.9118 7.69584 89.5938 7.94961 89.4036 8.20466C89.2134 8.4597 89.0213 8.77707 88.9584 9.09508C88.8954 9.41309 88.8318 9.66687 88.8318 9.92191H94.556C94.3645 8.96788 94.0465 8.33186 93.6649 7.88665Z" fill="#C2CDE7"/>
</g>
<defs>
<clipPath id="clip0_1_24465">
<rect width="96.9828" height="18" fill="white" transform="translate(0.982178)"/>
</clipPath>
</defs>
</svg>
