<svg width="74" height="18" viewBox="0 0 74 18" fill="none" xmlns="http://www.w3.org/2000/svg">
<g id="dribbble">
<path id="Vector" d="M22.5493 7.24226C23.3926 7.24226 24.0763 6.55835 24.0763 5.71483C24.0763 4.87117 23.3926 4.1874 22.5493 4.1874C21.7059 4.1874 21.0223 4.87117 21.0223 5.71483C21.0223 6.55835 21.7059 7.24226 22.5493 7.24226ZM72.9446 12.461C72.7123 12.2976 72.533 12.2706 72.3841 12.5878C69.8195 18.1425 65.4975 15.3706 65.9268 15.6146C66.8855 15.176 69.4068 13.154 69.0257 10.3619C68.7943 8.65557 67.3298 7.89869 65.7753 8.16969C63.0618 8.64276 62.0636 11.5695 62.5718 14.1607C62.6607 14.6057 62.8196 14.9727 62.9783 15.3322C59.912 17.8258 58.6942 13.1 58.5561 12.5352C58.5506 12.505 60.9237 10.527 61.5837 5.81342C62.2756 0.873337 60.6996 -0.0261681 59.0882 0.00189647C56.1061 0.0538519 55.3003 6.28433 56.3829 11.477C56.2922 11.5006 55.8702 11.7343 55.1922 11.7605C54.7043 10.2253 52.6196 8.87965 52.074 9.3982C50.7085 10.6954 52.4052 13.2314 53.599 13.4303C52.8819 17.8474 48.3969 16.7534 49.2317 11.2195C50.6923 8.50733 51.803 4.47452 51.6049 2.03996C51.5346 1.17802 50.8973 0.0231967 49.4561 0.0804772C46.6841 0.190145 46.3827 6.42235 46.7077 10.8456C46.6915 10.7367 46.5373 11.383 45.4013 11.7044C45.1326 10.2129 42.7311 8.71587 42.1658 9.43561C41.1076 10.7827 42.9415 13.1846 43.8102 13.3521C43.0931 17.7691 38.6082 16.6751 39.4431 11.1412C40.9036 8.42918 42.0143 4.39637 41.8161 1.96181C41.7458 1.09972 41.1087 -0.0550962 39.6673 0.00204039C36.8953 0.111852 36.5939 6.34405 36.9189 10.7673C36.9026 10.6566 36.7447 11.3243 35.5624 11.6403C35.5229 9.70532 33.1126 8.81805 32.5336 9.43547C31.5017 10.536 32.7699 12.7942 33.9432 13.3521C33.226 17.7691 28.7412 16.6751 29.576 11.1412C31.0366 8.42918 32.1473 4.39637 31.949 1.96181C31.8789 1.09972 31.2416 -0.0550962 29.8003 0.00204039C27.0284 0.111852 26.8053 6.65737 27.1303 11.0805C26.2172 14.9924 23.1553 19.8776 23.5531 10.0915C23.5924 9.40496 23.6353 9.14432 23.293 8.88728C23.0366 8.68752 22.4534 8.78365 22.1346 8.79157C21.7472 8.80711 21.65 9.03379 21.5644 9.37646C21.3649 10.2613 21.3291 11.1191 21.3006 12.2894C21.2819 12.8369 21.238 13.0924 21.0272 13.8389C20.8166 14.5852 19.6153 15.9495 18.9576 15.7214C18.0451 15.4076 18.3445 12.8317 18.5155 11.0619C18.6579 9.6633 18.2017 9.03523 17.0328 8.80683C16.3484 8.6642 15.9326 8.68608 15.22 8.46142C14.546 8.24899 14.3936 6.97414 12.9561 7.39899C12.1698 7.63157 12.6753 9.29745 12.4863 10.5321C11.5573 16.6057 9.62431 16.7726 8.72754 13.8222C12.7664 3.93036 9.89589 0.0306806 8.21561 0.0306806C6.46554 0.0306806 4.46504 1.23616 5.31216 8.94916C4.90025 8.82899 4.7736 8.76423 4.3227 8.76423C1.77257 8.76423 0.0351562 10.8257 0.0351562 13.3688C0.0351562 15.9119 1.77271 17.9736 4.32284 17.9736C5.82826 17.9736 6.88521 17.2889 7.6857 16.2298C8.20799 16.9778 8.84397 17.9851 10.007 17.9398C13.4736 17.8048 14.4818 10.6938 14.6008 10.2971C14.9714 10.3543 15.322 10.4623 15.6642 10.5195C16.2344 10.6051 16.2759 10.8308 16.2629 11.4043C16.1118 16.2406 17.0043 17.934 19.0287 17.934C20.1566 17.934 21.1619 16.8258 21.8544 16.0334C22.3717 17.101 23.1959 17.9013 24.3016 17.9338C26.981 18.0005 28.0069 13.7299 27.9133 14.2919C27.8399 14.7329 28.7826 17.9098 31.541 17.9213C34.9578 17.9357 35.5929 14.1782 35.6687 13.5489C35.6782 13.4237 35.6823 13.4366 35.6687 13.5489L35.6661 13.587C36.7508 13.3852 37.3105 12.8036 37.3105 12.8036C37.3105 12.8036 38.1815 17.9798 41.4079 17.9215C44.7584 17.8607 45.3902 14.4642 45.4731 13.8019C45.484 13.6447 45.4905 13.6631 45.4731 13.8019C45.4727 13.8084 45.4722 13.8148 45.4718 13.8213C46.7603 13.3526 47.0993 12.8821 47.0993 12.8821C47.0993 12.8821 47.7915 17.9553 51.1967 17.9996C54.2311 18.0393 55.3557 14.9319 55.3623 13.6313C55.8741 13.6368 56.8208 13.3277 56.7987 13.3101C56.7987 13.3101 57.9102 17.7457 61.0141 17.9736C62.4715 18.0805 63.5647 17.1535 64.1879 16.7307C65.6524 17.9167 70.5291 19.4316 73.6085 14.2109C74.0431 13.4617 73.1086 12.5765 72.9446 12.461ZM4.19979 16.2514C2.71194 16.2514 1.75789 14.8757 1.75789 13.3923C1.75789 11.909 2.63365 10.5333 4.1215 10.5333C4.79102 10.5333 5.16349 10.607 5.68491 11.0605C5.77947 11.4331 6.04745 12.2926 6.17784 12.6829C6.35256 13.2052 6.56038 13.6498 6.76993 14.1336C6.47057 15.3747 5.48918 16.2514 4.19979 16.2514ZM7.82545 11.1041C7.76356 11.0055 7.77651 11.0661 7.70729 10.973C7.43456 10.2311 6.90896 8.57511 6.84808 6.69421C6.77928 4.56649 7.13391 2.07248 8.17935 2.07248C8.88772 2.07248 9.64057 7.12698 7.8253 11.1041H7.82545ZM28.7747 8.88713C28.6069 7.62452 28.5981 1.99577 29.9494 2.15078C30.6955 2.45301 29.4763 7.76441 28.7747 8.88713ZM38.6418 8.88713C38.474 7.62452 38.4652 1.99577 39.8164 2.15078C40.5625 2.45301 39.3434 7.76441 38.6418 8.88713ZM48.4305 8.96557C48.2626 7.70281 48.2539 2.07407 49.6051 2.22907C50.3512 2.5313 49.132 7.84284 48.4305 8.96557ZM59.2373 1.82134C60.4727 1.69325 60.4217 7.08827 57.942 10.4943C57.6222 9.2632 57.1318 2.24404 59.2373 1.8212V1.82134ZM64.4299 13.4303C64.0331 11.4259 65.0584 10.1095 66.1154 9.9651C66.4848 9.90609 67.0202 10.1454 67.127 10.5929C67.3026 11.4361 67.1015 12.6869 64.7359 14.2739C64.7394 14.2875 64.5184 13.8767 64.4301 13.4303H64.4299Z" fill="#C2CDE7"/>
</g>
</svg>
