<svg width="18" height="18" viewBox="0 0 18 18" fill="none" xmlns="http://www.w3.org/2000/svg">
<g id="ri:linkedin-fill">
<path id="Vector" d="M5.20496 3.74977C5.20476 4.1476 5.04653 4.52905 4.76509 4.81021C4.48364 5.09138 4.10203 5.24922 3.70421 5.24902C3.30638 5.24882 2.92493 5.0906 2.64377 4.80915C2.3626 4.52771 2.20476 4.1461 2.20496 3.74827C2.20516 3.35045 2.36338 2.969 2.64483 2.68783C2.92627 2.40667 3.30788 2.24882 3.70571 2.24902C4.10353 2.24922 4.48498 2.40745 4.76615 2.68889C5.04731 2.97034 5.20516 3.35195 5.20496 3.74977ZM5.24996 6.35977H2.24996V15.7498H5.24996V6.35977ZM9.98996 6.35977H7.00496V15.7498H9.95996V10.8223C9.95996 8.07727 13.5375 7.82227 13.5375 10.8223V15.7498H16.5V9.80227C16.5 5.17477 11.205 5.34727 9.95996 7.61977L9.98996 6.35977Z" fill="white"/>
</g>
</svg>
