<svg width="124" height="20" viewBox="0 0 124 20" fill="none" xmlns="http://www.w3.org/2000/svg">
<g id="surveymonkey">
<g id="Group 35">
<g id="&#60;Group&#62;">
<path id="&#60;Compound Path&#62;" d="M30.7568 14.2763L31.7357 13.1121C32.6219 13.8795 33.5058 14.3143 34.6557 14.3143C35.6607 14.3143 36.2951 13.851 36.2951 13.1501V13.1239C36.2951 12.4634 35.9245 12.107 34.2067 11.6984C32.237 11.2232 31.118 10.6411 31.118 8.93517V8.90904C31.118 7.32429 32.439 6.22662 34.278 6.22662C35.5 6.20211 36.6906 6.61499 37.6351 7.39082L36.7632 8.63343C35.9316 8.01331 35.1 7.68306 34.2518 7.68306C33.3015 7.68306 32.7455 8.1725 32.7455 8.78074V8.80687C32.7455 9.51965 33.1684 9.83803 34.9385 10.2609C36.8939 10.7361 37.9131 11.4489 37.9131 12.9695V12.9956C37.9131 14.7277 36.5517 15.7588 34.6082 15.7588C33.1843 15.7628 31.8105 15.234 30.7568 14.2763Z" fill="#C2CDE7"/>
<path id="&#60;Compound Path&#62;_2" d="M38.9871 13.0888V8.64819H40.5861V12.6136C40.5861 13.697 41.1278 14.3195 42.0805 14.3195C43.0333 14.3195 43.6534 13.6709 43.6534 12.5851V8.64819H45.2524V15.6263H43.6534V14.9135C43.3761 15.2095 43.0367 15.4406 42.6596 15.5901C42.2826 15.7396 41.8771 15.8039 41.4723 15.7784C39.8994 15.7712 38.9871 14.7068 38.9871 13.0888Z" fill="#C2CDE7"/>
<path id="&#60;Compound Path&#62;_3" d="M46.9629 8.6475H48.5619V9.81171C48.9967 8.7663 49.8045 8.46218 51.0329 8.51683V9.94238H50.9402C49.5384 9.94238 48.5643 10.8785 48.5643 12.9788V15.6256H46.9653L46.9629 8.6475Z" fill="#C2CDE7"/>
<path id="&#60;Compound Path&#62;_4" d="M51.6035 8.64819H53.3213L55.1983 13.5046L57.099 8.64819H58.7764L55.9253 15.6809H54.4855L51.6035 8.64819Z" fill="#C2CDE7"/>
<path id="&#60;Compound Path&#62;_5" d="M58.7783 12.1623V12.1361C58.7783 10.1404 60.2039 8.50098 62.1878 8.50098C64.4093 8.50098 65.5331 10.2449 65.5331 12.2549C65.5331 12.3999 65.5188 12.5448 65.5069 12.704H60.3773C60.5484 13.8397 61.3562 14.4764 62.3874 14.4764C62.7451 14.4794 63.0994 14.4066 63.427 14.2629C63.7546 14.1192 64.048 13.9077 64.2881 13.6425L65.2147 14.4693C64.8723 14.8921 64.4368 15.23 63.9422 15.4566C63.4476 15.6833 62.9074 15.7926 62.3636 15.7761C60.3393 15.7832 58.7783 14.3172 58.7783 12.1623ZM63.946 11.6467C63.8414 10.6156 63.2332 9.81011 62.1759 9.81011C61.197 9.81011 60.5127 10.5633 60.3654 11.6467H63.946Z" fill="#C2CDE7"/>
<path id="&#60;Compound Path&#62;_6" d="M74.0078 6.37427H75.7399L78.5553 11.0929L81.3708 6.37427H83.0934V15.6261H81.4777V8.99016L78.5553 13.6969H78.5031L75.6092 9.0163V15.6261H74.0102L74.0078 6.37427Z" fill="#C2CDE7"/>
<path id="&#60;Compound Path&#62;_7" d="M84.2481 12.1762V12.1501C84.2446 11.1633 84.6333 10.2155 85.3286 9.51529C86.0239 8.81507 86.9689 8.41975 87.9557 8.41628C88.9425 8.41282 89.8903 8.80149 90.5905 9.49681C91.2907 10.1921 91.686 11.1371 91.6895 12.1239V12.1501C91.6877 12.6358 91.589 13.1163 91.3992 13.5634C91.2093 14.0105 90.9321 14.4152 90.5838 14.7538C90.2355 15.0923 89.8231 15.358 89.3708 15.5351C88.9185 15.7122 88.4354 15.7972 87.9498 15.7852C87.4681 15.7976 86.9888 15.7134 86.5402 15.5376C86.0916 15.3617 85.6827 15.0979 85.3377 14.7615C84.9927 14.4251 84.7185 14.0231 84.5314 13.579C84.3442 13.135 84.2479 12.658 84.2481 12.1762ZM90.0905 12.1762V12.1501C90.0905 10.9217 89.2043 9.90242 87.9521 9.90242C86.7 9.90242 85.8494 10.9074 85.8494 12.1239V12.1501C85.8494 13.3665 86.7357 14.3977 87.9878 14.3977C89.2708 14.3977 90.0905 13.3784 90.0905 12.1762Z" fill="#C2CDE7"/>
<path id="&#60;Compound Path&#62;_8" d="M100.635 5.97754H102.234V11.7392L105.128 8.65046H107.072L104.296 11.5016L107.164 15.6381H105.313L103.211 12.6254L102.232 13.6423V15.6381H100.633L100.635 5.97754Z" fill="#C2CDE7"/>
<path id="&#60;Compound Path&#62;_9" d="M107.036 12.1623V12.1361C107.036 10.1404 108.462 8.50098 110.445 8.50098C112.667 8.50098 113.791 10.2449 113.791 12.2549C113.791 12.3999 113.777 12.5448 113.765 12.704H108.635C108.806 13.8397 109.614 14.4764 110.645 14.4764C111.003 14.4796 111.357 14.4069 111.685 14.2631C112.012 14.1194 112.306 13.9078 112.546 13.6425L113.472 14.4693C113.13 14.8921 112.694 15.23 112.2 15.4566C111.705 15.6833 111.165 15.7926 110.621 15.7761C108.595 15.7832 107.036 14.3172 107.036 12.1623ZM112.204 11.6467C112.099 10.6156 111.491 9.81011 110.434 9.81011C109.455 9.81011 108.77 10.5633 108.623 11.6467H112.204Z" fill="#C2CDE7"/>
<path id="&#60;Path&#62;" d="M71.1503 8.64819L69.2186 13.4072L67.3013 8.64819H65.6357L68.3847 15.4647L66.9496 19.0001H68.6151L72.8158 8.64819H71.1503Z" fill="#C2CDE7"/>
<path id="&#60;Compound Path&#62;_10" d="M122.85 8.76722C122.684 8.76726 122.52 8.80979 122.375 8.89077C122.223 8.97185 122.098 9.09471 122.014 9.24478C121.932 9.39013 121.888 9.5534 121.886 9.71997C121.886 9.88657 121.929 10.0503 122.011 10.1952C122.094 10.3446 122.218 10.4674 122.368 10.5492C122.512 10.6326 122.676 10.6765 122.843 10.6765C123.01 10.6765 123.174 10.6326 123.318 10.5492C123.467 10.4671 123.59 10.3443 123.672 10.1952C123.754 10.0501 123.797 9.88647 123.797 9.71997C123.797 9.55347 123.754 9.38979 123.672 9.24478C123.59 9.09421 123.465 8.97111 123.313 8.89077C123.168 8.81027 123.005 8.76778 122.838 8.76722M122.838 8.57715C123.036 8.57851 123.229 8.63002 123.401 8.72683C123.584 8.82191 123.733 8.96915 123.831 9.14975C123.932 9.32368 123.986 9.52122 123.986 9.72234C123.986 9.92347 123.932 10.121 123.831 10.2949C123.733 10.474 123.585 10.6214 123.406 10.7202C123.232 10.8185 123.036 10.8701 122.836 10.8699C122.635 10.8691 122.439 10.8176 122.263 10.7202C122.084 10.6216 121.937 10.4741 121.838 10.2949C121.74 10.1216 121.689 9.92606 121.688 9.7271C121.688 9.52513 121.741 9.32668 121.843 9.15212C121.941 8.9723 122.09 8.82524 122.27 8.72921C122.444 8.63296 122.638 8.58151 122.836 8.57952" fill="#C2CDE7"/>
<g id="&#60;Group&#62;_2">
<path id="&#60;Compound Path&#62;_11" d="M122.363 9.0899H122.936C123.072 9.08242 123.205 9.1285 123.307 9.2182C123.378 9.29304 123.416 9.39302 123.414 9.49618C123.417 9.5865 123.388 9.67503 123.332 9.74627C123.277 9.81751 123.198 9.86692 123.109 9.88583L123.456 10.361H123.188L122.872 9.91197H122.589V10.361H122.352L122.363 9.0899ZM122.919 9.71714C123.081 9.71714 123.183 9.63161 123.183 9.50331C123.183 9.3655 123.083 9.28947 122.917 9.28947H122.589V9.71714H122.919Z" fill="#C2CDE7"/>
</g>
<path id="&#60;Path&#62;_2" d="M119.407 8.64819L117.475 13.4072L115.556 8.64819H113.893L116.642 15.4647L115.206 19.0001H116.872L121.073 8.64819H119.407Z" fill="#C2CDE7"/>
<path id="&#60;Compound Path&#62;_12" d="M99.0127 11.1852V15.6259H97.4137V11.6604C97.4066 10.577 96.8743 9.95451 95.924 9.95451C94.9736 9.95451 94.3511 10.6031 94.3511 11.6866V15.6259H92.7402V8.64775H94.3392V9.36053C94.6166 9.06451 94.9559 8.83347 95.333 8.68396C95.71 8.53444 96.1155 8.47015 96.5203 8.49569C98.0932 8.50045 99.0127 9.55773 99.0127 11.1852Z" fill="#C2CDE7"/>
</g>
<path id="&#60;Compound Path&#62;_13" d="M23.8644 10.8449C23.617 10.8463 23.3707 10.8787 23.1307 10.9414C22.6832 9.09629 21.7386 7.42507 20.4097 6.12713C19.0808 4.8292 17.4236 3.95936 15.6359 3.62141C15.4728 3.59109 15.3256 3.56905 15.1599 3.547C15.1862 2.60995 15.2283 1.52684 16.5458 0.551204L16.338 0C16.338 0 13.774 0.826806 13.4769 3.13359C13.348 2.50798 12.162 1.72527 11.5624 1.57644L11.2679 2.07528C11.5298 2.241 11.7532 2.46571 11.9219 2.73313C12.0907 3.00055 12.2005 3.30398 12.2435 3.62141C10.4557 3.95867 8.79817 4.82788 7.46877 6.12533C6.13938 7.42278 5.19423 9.09368 4.74612 10.9386C4.27663 10.8156 3.78606 10.8107 3.31439 10.9241C2.84272 11.0375 2.40329 11.2661 2.03191 11.5912C1.66054 11.9164 1.36773 12.3289 1.17735 12.7952C0.986976 13.2615 0.904417 13.7683 0.936406 14.2744C0.968394 14.7804 1.11402 15.2714 1.36143 15.7073C1.60883 16.1431 1.951 16.5116 2.36006 16.7826C2.76912 17.0536 3.23348 17.2194 3.71531 17.2666C4.19714 17.3138 4.68279 17.2411 5.13269 17.0543C5.39439 17.7399 5.72871 18.3925 6.12936 19L8.67759 17.2003L8.65655 17.17C7.94544 16.1199 7.54403 14.8741 7.50209 13.5872C7.42583 12.121 7.76506 10.663 8.66181 9.80592C10.5026 8.15231 12.5118 8.91021 13.7688 10.4867H14.108C15.365 8.91021 17.3715 8.16057 19.215 9.80592C20.1091 10.663 20.451 12.121 20.3747 13.5872C20.3328 14.8741 19.9313 16.1199 19.2202 17.17L19.1992 17.2003L21.7474 19C22.1481 18.3925 22.4824 17.7399 22.7441 17.0543C23.1641 17.2262 23.6151 17.299 24.065 17.2676C24.5148 17.2362 24.9526 17.1012 25.3471 16.8724C25.7416 16.6435 26.0831 16.3263 26.3474 15.9435C26.6116 15.5606 26.7921 15.1214 26.8761 14.6571C26.96 14.1928 26.9453 13.7148 26.8329 13.2572C26.7206 12.7996 26.5134 12.3735 26.2262 12.0093C25.9389 11.645 25.5785 11.3516 25.1708 11.1499C24.763 10.9482 24.3179 10.8431 23.867 10.8422L23.8644 10.8449ZM3.95193 15.012C3.7201 14.9989 3.50188 14.8932 3.34219 14.7166C3.1825 14.54 3.0935 14.3059 3.0935 14.0626C3.0935 13.8193 3.1825 13.5852 3.34219 13.4086C3.50188 13.232 3.7201 13.1262 3.95193 13.1131C4.13302 13.1143 4.3097 13.1718 4.45947 13.2785C4.4673 13.7769 4.49978 14.2746 4.55677 14.7695C4.39049 14.9256 4.17515 15.0119 3.95193 15.012ZM23.9249 15.012C23.7016 15.0119 23.4863 14.9256 23.32 14.7695C23.377 14.2746 23.4095 13.7769 23.4173 13.2785C23.5536 13.1817 23.7124 13.1257 23.8768 13.1166C24.0412 13.1074 24.2048 13.1454 24.3501 13.2265C24.4954 13.3076 24.6168 13.4287 24.7013 13.5768C24.7857 13.7248 24.8301 13.8942 24.8295 14.0667C24.8291 14.1912 24.8054 14.3144 24.7596 14.4293C24.7138 14.5442 24.6469 14.6485 24.5627 14.7363C24.4784 14.8241 24.3785 14.8936 24.2686 14.9409C24.1587 14.9882 24.041 15.0124 23.9222 15.012H23.9249Z" fill="#C2CDE7"/>
</g>
</g>
</svg>
