<svg width="73" height="73" viewBox="0 0 73 73" fill="none" xmlns="http://www.w3.org/2000/svg">
<path id="Vector" d="M62.2704 19.4064C60.9077 19.4064 59.5804 19.6909 58.3481 20.2122V2.29551C58.3481 1.19352 57.4593 0.292969 56.3454 0.292969H34.5894C32.338 0.292969 32.1721 3.01844 33.2624 3.78866C34.5185 4.92621 35.2649 6.53777 35.2649 8.22045C35.2649 11.4909 32.5988 14.169 29.3163 14.169C26.0459 14.169 23.3677 11.503 23.3677 8.22045C23.3677 6.53777 24.0904 4.91448 25.3702 3.78866C26.3896 3.03017 26.4251 0.292969 24.0433 0.292969H2.25181C1.14982 0.292969 0.249268 1.1816 0.249268 2.29551V56.389C0.249268 57.491 1.1379 58.3915 2.25181 58.3915H20.1684C19.6471 59.6238 19.3626 60.9511 19.3626 62.3137C19.3626 67.8 23.83 72.2555 29.3044 72.2555C34.7788 72.2555 39.2462 67.7881 39.2462 62.3137C39.2462 60.9511 38.9617 59.6238 38.4404 58.3915H56.3452C57.4472 58.3915 58.3478 57.5029 58.3478 56.389V38.4724C59.5801 38.9937 60.9073 39.2782 62.27 39.2782C67.7563 39.2782 72.2118 34.8109 72.2118 29.3365C72.2121 23.8736 67.7567 19.4064 62.2704 19.4064ZM62.2704 35.2849C60.5877 35.2849 58.9644 34.5621 57.8386 33.2823C57.1867 32.2159 54.3428 32.1803 54.3428 34.6094V54.3864H34.5894C32.4091 54.3864 31.9826 57.0763 33.2624 57.8821C34.5185 59.0197 35.2649 60.6312 35.2649 62.3139C35.2649 65.5843 32.5988 68.2625 29.3163 68.2625C26.0459 68.2625 23.3677 65.5964 23.3677 62.3139C23.3677 60.6312 24.0904 59.0079 25.3702 57.8821C26.3538 57.3489 26.5197 54.3864 24.0431 54.3864H4.25454V4.29823H20.1805C19.6592 5.53054 19.3747 6.85781 19.3747 8.22045C19.3747 13.7068 23.8421 18.1622 29.3165 18.1622C34.7911 18.1622 39.2583 13.6948 39.2583 8.22045C39.2583 6.85781 38.9738 5.53054 38.4525 4.29823H54.3665V24.0752C54.3665 26.4095 57.1631 26.5162 57.8622 25.4023C58.9997 24.1462 60.6113 23.3998 62.294 23.3998C65.5644 23.3998 68.2426 26.0659 68.2426 29.3484C68.2188 32.6305 65.5527 35.2849 62.2704 35.2849Z" fill="#204ECF"/>
</svg>
