<svg width="154" height="18" viewBox="0 0 154 18" fill="none" xmlns="http://www.w3.org/2000/svg">
<g id="veroxfloor" clip-path="url(#clip0_1_24452)">
<path id="Vector" d="M7.84532 17.7221L0.833252 0.277832H4.42517L9.55792 13.2916L14.721 0.277832H18.3129L11.2655 17.7221H7.84532Z" fill="#C2CDE7"/>
<path id="Vector_2" d="M21.4047 7.46669H31.943C31.6196 6.25928 30.973 5.26406 30.0081 4.48606C29.0432 3.70806 27.9419 3.31907 26.7092 3.31907C25.3856 3.31907 24.2489 3.70301 23.3092 4.4709C22.3696 5.2388 21.733 6.23908 21.4097 7.47175M20.3438 15.3932C18.6109 13.6502 17.7471 11.5335 17.7471 9.04289C17.7471 6.5523 18.6008 4.42544 20.3134 2.65726C22.021 0.889091 24.1226 0.00500488 26.6081 0.00500488C29.0937 0.00500488 31.0488 0.803208 32.817 2.39456C34.5851 3.98592 35.5147 6.08752 35.6107 8.69431C35.6107 9.27528 35.5753 9.80068 35.5046 10.2655H21.4097C21.5512 11.5689 22.1018 12.6298 23.0667 13.4583C24.0317 14.2817 25.2138 14.696 26.6081 14.696C28.3308 14.696 29.7252 14.115 30.7962 12.9531L34.8781 12.9884C34.1102 14.499 32.9938 15.7165 31.5287 16.6359C30.0637 17.5554 28.4571 18.0151 26.7142 18.0151C24.2034 18.0151 22.0816 17.1411 20.3488 15.3982L20.3438 15.3932Z" fill="#C2CDE7"/>
<path id="Vector_3" d="M37.9194 17.7222V8.6186C37.9194 5.82489 38.5863 3.72834 39.925 2.31886C41.2638 0.909371 43.037 0.207153 45.2447 0.207153H45.5933V3.52121H45.2447C42.6379 3.52121 41.3396 5.21866 41.3396 8.61355V17.7171H37.9194V17.7222Z" fill="#C2CDE7"/>
<path id="Vector_4" d="M55.8231 3.31406C54.2166 3.31406 52.8829 3.85967 51.8119 4.95594C50.7409 6.04715 50.2054 7.39601 50.2054 9.00253C50.2054 10.609 50.7459 11.9276 51.8271 13.034C52.9082 14.1403 54.2419 14.691 55.8231 14.691C57.4044 14.691 58.7229 14.1454 59.7838 13.0491C60.8447 11.9579 61.3701 10.609 61.3701 9.00253C61.3701 7.39601 60.8397 6.04715 59.7838 4.95594C58.728 3.86472 57.4044 3.31406 55.8231 3.31406ZM49.4223 2.63205C51.1804 0.873983 53.3022 0 55.7878 0C58.2733 0 60.4002 0.879035 62.1532 2.63205C63.9112 4.39012 64.7852 6.51193 64.7852 8.99747C64.7852 11.483 63.9062 13.6099 62.1532 15.3629C60.3951 17.121 58.2733 17.9949 55.7878 17.9949C53.3022 17.9949 51.1754 17.1159 49.4223 15.3629C47.6643 13.6048 46.7903 11.483 46.7903 8.99747C46.7903 6.51193 47.6693 4.38507 49.4223 2.63205Z" fill="#C2CDE7"/>
<path id="Vector_5" d="M82.4929 17.7221H78.5878L74.0865 11.4779L69.5853 17.7221H65.6448L72.1314 8.65392L66.1651 0.277832H70.04L74.0512 5.86021L78.1331 0.277832H82.0029L76.0416 8.65392L82.4929 17.7221Z" fill="#C2CDE7"/>
<path id="Vector_6" d="M86.4582 17.6666V11.8266H83.3311V9.82604H86.4582V9.20465L86.5289 7.07779C86.7158 4.96104 87.3776 3.29895 88.5194 2.08649C89.6611 0.879082 91.1817 0.176864 93.0914 -0.00500488V2.12185C91.884 2.32898 90.8887 2.85438 90.1107 3.693C89.3327 4.53162 88.8831 5.6582 88.7669 7.07779L88.6962 9.20465V9.82604H94.1977V11.8266H88.6962V17.6666H86.4632H86.4582Z" fill="#C2CDE7"/>
<path id="Vector_7" d="M99.9468 0.282959H97.7139V17.7272H99.9468V0.282959Z" fill="#C2CDE7"/>
<path id="Vector_8" d="M117.492 4.11732C116.199 2.79371 114.602 2.12686 112.693 2.12686C110.783 2.12686 109.177 2.78866 107.863 4.11732C106.55 5.44092 105.893 7.07269 105.893 9.00253C105.893 10.9324 106.555 12.5338 107.883 13.8675C109.207 15.2063 110.814 15.8731 112.698 15.8731C114.582 15.8731 116.174 15.2113 117.477 13.8827C118.78 12.5591 119.432 10.9273 119.432 8.99747C119.432 7.06764 118.785 5.44092 117.497 4.11227M106.297 2.63205C108.055 0.873983 110.177 0 112.663 0C115.148 0 117.275 0.879035 119.028 2.63205C120.786 4.39012 121.66 6.51193 121.66 8.99747C121.66 11.483 120.781 13.6099 119.028 15.3629C117.27 17.121 115.148 17.9949 112.663 17.9949C110.177 17.9949 108.05 17.1159 106.297 15.3629C104.539 13.6048 103.665 11.483 103.665 8.99747C103.665 6.51193 104.544 4.38507 106.297 2.63205Z" fill="#C2CDE7"/>
<path id="Vector_9" d="M139.15 4.11732C137.857 2.79371 136.26 2.12686 134.351 2.12686C132.441 2.12686 130.834 2.78866 129.521 4.11732C128.207 5.44092 127.551 7.07269 127.551 9.00253C127.551 10.9324 128.212 12.5338 129.541 13.8675C130.865 15.2063 132.471 15.8731 134.356 15.8731C136.24 15.8731 137.831 15.2113 139.135 13.8827C140.438 12.5591 141.09 10.9273 141.09 8.99747C141.09 7.06764 140.443 5.44092 139.155 4.11227M127.955 2.63205C129.713 0.873983 131.835 0 134.32 0C136.806 0 138.933 0.879035 140.686 2.63205C142.444 4.39012 143.318 6.51193 143.318 8.99747C143.318 11.483 142.439 13.6099 140.686 15.3629C138.928 17.121 136.806 17.9949 134.32 17.9949C131.835 17.9949 129.708 17.1159 127.955 15.3629C126.197 13.6048 125.323 11.483 125.323 8.99747C125.323 6.51193 126.202 4.38507 127.955 2.63205Z" fill="#C2CDE7"/>
<path id="Vector_10" d="M145.954 17.7221V8.64888C145.954 5.83496 146.601 3.7182 147.889 2.29861C149.183 0.879022 150.92 0.171753 153.103 0.171753C153.335 0.171753 153.512 0.181857 153.628 0.207116V2.33398C153.512 2.30872 153.335 2.29861 153.103 2.29861C151.592 2.29861 150.395 2.83412 149.511 3.90512C148.627 4.97613 148.187 6.55738 148.187 8.64888V17.7221H145.954Z" fill="#C2CDE7"/>
<path id="Vector_11" d="M151.719 15.7822H152.098C152.28 15.7822 152.401 15.7569 152.467 15.7013C152.532 15.6458 152.568 15.575 152.568 15.4892C152.568 15.4336 152.553 15.3831 152.522 15.3376C152.492 15.2921 152.446 15.2568 152.391 15.2366C152.335 15.2163 152.229 15.2012 152.078 15.2012H151.724V15.7771L151.719 15.7822ZM151.406 16.8633V14.9385H152.068C152.295 14.9385 152.457 14.9587 152.558 14.9941C152.659 15.0294 152.739 15.09 152.8 15.181C152.861 15.2669 152.891 15.3629 152.891 15.4639C152.891 15.6053 152.84 15.7266 152.739 15.8327C152.638 15.9388 152.507 15.9943 152.34 16.0095C152.406 16.0398 152.462 16.0701 152.502 16.1105C152.578 16.1863 152.674 16.3126 152.785 16.4894L153.017 16.8683H152.638L152.467 16.5652C152.33 16.3278 152.224 16.1762 152.138 16.1156C152.083 16.0701 151.997 16.0499 151.891 16.0499H151.709V16.8683H151.396L151.406 16.8633ZM152.194 14.3828C151.941 14.3828 151.699 14.4485 151.456 14.5748C151.219 14.7011 151.032 14.888 150.895 15.1254C150.759 15.3629 150.693 15.6154 150.693 15.8731C150.693 16.1307 150.759 16.3783 150.89 16.6157C151.022 16.8532 151.209 17.035 151.446 17.1664C151.684 17.2977 151.931 17.3634 152.189 17.3634C152.446 17.3634 152.694 17.2977 152.931 17.1664C153.169 17.035 153.356 16.8481 153.482 16.6157C153.613 16.3783 153.679 16.1307 153.679 15.8731C153.679 15.6154 153.613 15.3629 153.477 15.1254C153.346 14.888 153.159 14.7011 152.916 14.5748C152.679 14.4485 152.431 14.3828 152.184 14.3828H152.194ZM152.194 14.0847C152.492 14.0847 152.79 14.1605 153.073 14.3171C153.361 14.4687 153.583 14.6909 153.74 14.9789C153.901 15.2669 153.977 15.5649 153.977 15.8781C153.977 16.1914 153.896 16.4844 153.74 16.7673C153.583 17.0502 153.361 17.2725 153.078 17.4291C152.795 17.5857 152.497 17.6665 152.189 17.6665C151.881 17.6665 151.583 17.5857 151.3 17.4291C151.017 17.2725 150.794 17.0502 150.638 16.7673C150.481 16.4844 150.4 16.1863 150.4 15.8781C150.4 15.57 150.481 15.2669 150.643 14.9789C150.805 14.6909 151.027 14.4687 151.315 14.3171C151.603 14.1605 151.896 14.0847 152.194 14.0847Z" fill="#C2CDE7"/>
</g>
<defs>
<clipPath id="clip0_1_24452">
<rect width="153.149" height="18" fill="white" transform="translate(0.833252)"/>
</clipPath>
</defs>
</svg>
