<svg width="163" height="18" viewBox="0 0 163 18" fill="none" xmlns="http://www.w3.org/2000/svg">
<g id="xpeng">
<path id="Vector" d="M0.927442 0.491314C1.28476 -0.223326 2.17806 -0.0446636 2.80337 0.312656C7.09121 2.09926 11.3791 4.06451 15.5776 5.94044C16.6495 6.20843 16.2029 7.54839 16.2029 8.35236C13.8803 8.35236 11.5577 8.35236 9.14581 8.35236C8.5205 8.35236 7.71652 8.44169 7.26987 7.90571C5.30461 6.11911 3.51801 4.15385 1.55275 2.27791C1.01677 1.83126 0.391462 1.11662 0.927442 0.491314ZM28.7984 1.20596C29.781 0.759307 30.853 0.312654 31.925 0.0446637C32.6396 -0.133996 32.9076 0.580643 33.2649 1.02729C31.8356 3.17121 29.6917 4.77916 27.9944 6.65509C27.1905 7.36973 26.5652 8.44169 25.4039 8.35236C22.9026 8.35236 20.3121 8.35236 17.8108 8.35236C17.6322 7.63772 17.2748 6.38709 18.1681 5.94044C21.652 4.42183 25.2252 2.8139 28.7984 1.20596ZM49.791 1.56327C49.9696 1.11662 50.5056 1.29529 50.9523 1.20596C54.4361 1.20596 57.92 1.20596 61.4039 1.20596C63.6371 1.29529 65.5131 2.90322 65.8704 5.13647C66.2277 7.63771 64.4411 9.9603 61.9399 10.3176C61.8505 10.3176 61.7612 10.3176 61.7612 10.3176C58.8133 10.4069 55.7761 10.2283 52.8282 10.3176C52.2029 11.9256 52.9175 13.7122 52.4709 15.4094C51.7562 16.1241 50.7736 16.4814 49.791 16.66C49.791 13.8908 49.791 11.2109 49.791 8.44169C49.791 8.08437 49.8803 7.45906 50.4163 7.54839C53.9895 7.45906 57.5627 7.54839 61.2252 7.54839C62.1185 7.54839 63.0118 6.92307 63.1011 5.94044C63.1905 4.95781 62.5652 4.06452 61.5825 3.97519C61.4932 3.97519 61.4039 3.97519 61.3145 3.97519C57.5627 3.88586 53.8108 4.06452 50.059 3.88586C49.7016 3.17122 49.7016 2.36724 49.791 1.56327ZM81.8605 16.66C81.8605 11.4789 81.7711 6.3871 81.8605 1.20596C87.2203 1.20596 92.5801 1.20596 98.0292 1.20596C97.8505 2.18859 97.3146 3.17122 96.5999 3.88586C92.6694 4.06452 88.6495 3.88586 84.6297 3.97519C84.6297 5.13648 84.6297 6.3871 84.6297 7.54839C88.4709 7.54839 92.4014 7.54839 96.2426 7.54839C96.3319 8.44169 96.3319 9.42432 96.2426 10.3176C92.3121 10.3176 88.4709 10.3176 84.5404 10.3176V13.8908C88.2922 13.8908 92.0441 13.8908 95.7959 13.8908C97.2252 13.8015 97.4039 15.4988 98.1185 16.3921C97.7612 16.5707 97.3146 16.7494 96.9572 16.66C91.8654 16.66 86.7736 16.66 81.8605 16.66ZM113.93 1.29529C114.287 0.848635 114.734 1.47395 115.091 1.65261C119.29 4.86849 123.488 8.08437 127.687 11.3002C127.776 8.44169 127.597 5.58313 127.776 2.63524C128.491 1.9206 129.384 1.38461 130.367 1.02729C130.545 1.6526 130.545 2.27791 130.545 2.90322C130.545 7.36972 130.545 11.7469 130.545 16.1241C130.724 16.8387 129.831 16.5707 129.563 16.3027C125.275 12.9975 121.076 9.78163 116.788 6.47642C116.699 9.33498 116.878 12.2829 116.699 15.1414C115.985 15.9454 115.091 16.3921 114.019 16.5707C114.019 12.0149 114.019 7.36973 114.019 2.81389C113.93 2.36724 113.93 1.83127 113.93 1.29529ZM146.625 7.10174C147.518 3.61787 150.645 1.20596 154.218 1.20596C156.987 1.29529 159.756 1.11663 162.436 1.29529C162.347 2.27792 161.9 3.17122 161.186 3.88586C158.684 4.15385 156.183 3.79653 153.682 4.06452C151.538 4.33251 149.841 5.85112 149.305 7.90571C148.769 10.5856 150.466 13.1762 153.146 13.8015C153.324 13.8015 153.503 13.8908 153.682 13.8908C155.826 13.8908 157.97 13.8908 160.114 13.8908C160.114 12.7295 160.114 11.5682 160.114 10.3176C158.506 10.3176 156.898 10.3176 155.29 10.3176C154.575 10.4069 154.396 9.60297 154.039 9.15632C153.682 8.70967 153.324 8.1737 153.592 7.63772C156.183 7.45906 158.774 7.63772 161.364 7.54839C161.811 7.63772 162.436 7.36972 162.793 7.81637C162.883 10.7643 162.793 13.7122 162.793 16.5707C160.828 16.7494 158.863 16.5707 156.898 16.66C154.932 16.7494 152.699 16.928 150.823 15.9454C147.518 14.3375 145.731 10.6749 146.625 7.10174ZM7.09122 10.0496C7.6272 9.51364 8.34183 9.6923 9.05647 9.60297C11.3791 9.60297 13.791 9.60297 16.1135 9.60297C16.1135 10.3176 16.5602 11.5682 15.6669 11.9256C12.0044 13.5335 8.2525 15.2308 4.58997 16.8387C3.69667 17.2854 2.62471 17.6427 1.64208 17.9107C1.1061 17.732 0.659451 17.196 0.748781 16.66C1.1061 15.9454 1.64208 15.3201 2.26739 14.8734C3.87533 13.2655 5.48327 11.5682 7.09122 10.0496ZM17.7215 9.69231C20.2227 9.60298 22.6346 9.69231 25.1359 9.69231C25.6719 9.69231 26.2972 9.60297 26.6545 10.0496C28.4411 11.7469 30.1384 13.5335 31.925 15.2308C32.4609 15.6774 32.8183 16.2134 33.1756 16.8387C33.2649 17.464 32.8183 18 32.193 18C31.925 18 31.7463 18 31.5676 17.8213C27.1011 16.0347 22.724 13.9802 18.3468 12.0149C17.1855 11.6576 17.6322 10.4963 17.7215 9.69231Z" fill="#C2CDE7"/>
</g>
</svg>
